<?xml version="1.0" encoding="UTF-8"?><svg id="Layer_2" xmlns="http://www.w3.org/2000/svg" viewBox="0 0 976.28 295.06"><defs><style>.cls-1{fill:#fff;}</style></defs><g id="Layer_1-2"><g><g><path class="cls-1" d="M41.86,3.18c-7.45,0-13.87,3.67-19.24,11.02-5.38,7.35-7.93,16.88-7.67,28.6,.17,10.28,3.25,19.05,9.23,26.31s14,10.89,24.05,10.89,18.03-2.84,23.92-8.54l2.47,1.66c-7.37,7.9-17.59,11.85-30.68,11.85s-23.9-4.1-31.92-12.29C4.01,64.49,0,54.49,0,42.68,0,29.51,4.2,19.11,12.61,11.47,21.02,3.82,31.59,0,44.33,0c4.68,0,8.95,.43,12.8,1.27,3.86,.85,6.83,1.89,8.91,3.12,2.08,1.23,3.83,2.48,5.27,3.76,1.43,1.27,2.4,2.34,2.92,3.19l.65,1.27h-15.34c-.09-.25-.24-.59-.46-1.02-.22-.42-.78-1.19-1.69-2.29-.91-1.1-1.95-2.06-3.12-2.87-1.17-.81-2.86-1.55-5.07-2.23-2.21-.68-4.66-1.02-7.35-1.02Z"/><path class="cls-1" d="M117.39,83.45c2.51-3.4,3.77-6.58,3.77-9.56v-26.88c0-6.2-2.3-10.36-6.89-12.48-4.07-1.95-8.02-1.61-11.83,1.02-4.42,2.89-6.63,7.64-6.63,14.27v24.08c0,1.36,.3,2.82,.91,4.4,.6,1.57,1.25,2.82,1.95,3.76l.91,1.4h-20.28c2.51-3.4,3.77-6.58,3.77-9.56V15.03c0-1.36-.3-2.84-.91-4.46-.61-1.61-1.26-2.89-1.95-3.82l-.91-1.4L95.81,0V38.73c1.56-3.23,4.09-5.94,7.6-8.15,3.51-2.21,7.21-3.31,11.11-3.31,5.46,0,10.05,1.59,13.78,4.78,3.73,3.19,5.59,8.22,5.59,15.1v26.75c0,1.36,.33,2.82,.98,4.4,.65,1.57,1.28,2.82,1.89,3.76l.91,1.4h-20.28Z"/><path class="cls-1" d="M157.95,84.98c-4.85,0-8.84-1.13-11.96-3.38s-4.68-5.63-4.68-10.13c0-3.48,1.21-6.69,3.64-9.62,2.43-2.93,5.37-5.22,8.84-6.88,3.47-1.66,6.93-3.06,10.4-4.2,3.47-1.15,6.41-1.93,8.84-2.36l3.64-.64c0-7.05-.5-11.87-1.5-14.46-1-2.59-3.4-3.84-7.22-3.76-2.17,0-3.92,.64-5.26,1.91-1.34,1.27-2.15,2.55-2.41,3.82l-.52,1.91h-13.13c.09-.25,.24-.62,.46-1.08,.22-.47,.8-1.27,1.75-2.42,.95-1.15,2.12-2.14,3.51-2.99,1.39-.85,3.44-1.63,6.17-2.36,2.73-.72,5.79-1.08,9.17-1.08,8.58,0,14.34,1.42,17.29,4.27,2.95,2.85,4.42,7.58,4.42,14.21v28.16c0,1.36,.26,2.82,.78,4.4,.52,1.57,1.04,2.82,1.56,3.76l.65,1.4h-15.73v-6.24c-.61,.6-1.5,1.32-2.67,2.17-1.17,.85-3.38,2-6.63,3.44-3.25,1.44-6.39,2.17-9.42,2.17Zm18.72-34.65c-.61,.17-1.39,.4-2.34,.7-.95,.3-2.67,1.06-5.13,2.29-2.47,1.23-4.66,2.55-6.56,3.95-1.91,1.4-3.64,3.31-5.2,5.73s-2.34,4.99-2.34,7.71c0,3.4,.87,5.88,2.6,7.45,1.73,1.57,3.79,2.23,6.18,1.97,2.38-.25,4.77-.91,7.15-1.97,2.38-1.06,4.27-2.31,5.66-3.76v-24.08Z"/><path class="cls-1" d="M221.91,84.98c-7.63,0-13.87-2.55-18.72-7.64-4.85-5.1-7.28-11.8-7.28-20.13s2.71-15.29,8.12-21.15c5.42-5.86,12.46-8.79,21.12-8.79,3.64,0,6.93,.51,9.88,1.53,2.95,1.02,4.94,2.04,5.98,3.06l1.69,1.53V15.03c0-1.36-.3-2.84-.91-4.46-.61-1.61-1.21-2.89-1.82-3.82l-.91-1.4L255.45,0V73.89c0,1.36,.3,2.82,.91,4.4,.6,1.57,1.21,2.82,1.82,3.76l.91,1.4h-16.38v-8.92c-.17,.25-.41,.62-.71,1.08-.3,.47-1.06,1.32-2.27,2.55-1.21,1.23-2.56,2.29-4.03,3.19-1.47,.89-3.44,1.72-5.91,2.48-2.47,.76-5.09,1.15-7.87,1.15Zm3.51-54.4c-5.03,.09-8.86,2.34-11.5,6.75-2.64,4.42-4.05,10.28-4.23,17.58-.17,6.8,1.34,12.78,4.55,17.96,3.21,5.18,7.41,7.77,12.61,7.77,2.08,0,4.05-.38,5.92-1.15,1.86-.76,3.38-1.7,4.55-2.8,1.17-1.1,2.19-2.23,3.06-3.38,.87-1.15,1.47-2.1,1.82-2.87l.52-1.15v-17.58c0-7.13-1.67-12.46-5-15.99-3.34-3.52-7.43-5.24-12.29-5.16Z"/><path class="cls-1" d="M341.11,28.79h10.66c-1.91,1.87-3.73,5.01-5.46,9.43l-18.07,45.99h-6.89l-14.95-37.58-14.82,37.58h-6.89l-18.2-45.86c-.78-2.04-1.67-3.84-2.67-5.41-1-1.57-1.8-2.65-2.41-3.25l-.78-.89h18.98c-1.3,3.14-1.3,6.33,0,9.56l13.78,34.53,11.7-29.68-1.95-4.84c-.78-2.04-1.65-3.84-2.6-5.41-.96-1.57-1.73-2.65-2.34-3.25l-.91-.89h19.11c-1.3,3.14-1.3,6.33,0,9.56l13.65,34.78,13.65-34.78c.52-1.7,.58-3.25,.2-4.65-.39-1.4-.93-2.57-1.62-3.5l-1.17-1.4Z"/><path class="cls-1" d="M357.1,41.53c0-1.36-.33-2.65-.98-3.89-.65-1.23-1.28-2.1-1.88-2.61l-.91-.89,16.51-5.35v45.1c0,1.36,.32,2.82,.97,4.4,.65,1.57,1.28,2.82,1.89,3.76l.91,1.4h-20.28c2.51-3.4,3.77-6.58,3.77-9.56V41.53Zm11.12-25.03c-1.52,1.49-3.32,2.23-5.4,2.23s-3.86-.74-5.33-2.23c-1.47-1.48-2.21-3.25-2.21-5.29s.74-3.8,2.21-5.29c1.47-1.48,3.25-2.23,5.33-2.23s3.88,.74,5.4,2.23c1.52,1.49,2.27,3.25,2.27,5.29s-.76,3.8-2.27,5.29Z"/><path class="cls-1" d="M408.19,84.98c-8.58,0-15.77-2.48-21.58-7.45-5.81-4.97-8.71-12.12-8.71-21.47,0-8.15,2.88-14.99,8.65-20.51,5.76-5.52,13.19-8.28,22.29-8.28,3.38,0,6.44,.36,9.17,1.08,2.73,.72,4.85,1.61,6.37,2.68,1.52,1.06,2.77,2.12,3.77,3.19,1,1.06,1.67,1.93,2.01,2.61l.52,1.15h-13.52c0-.25-.06-.55-.19-.89-.13-.34-.43-.98-.91-1.91-.48-.93-1.06-1.74-1.75-2.42-.69-.68-1.71-1.32-3.05-1.91-1.34-.59-2.88-.89-4.62-.89-5.03,0-9.01,2.7-11.96,8.09-2.95,5.39-3.94,11.74-2.99,19.05,.43,3.74,1.45,7.31,3.06,10.7,1.6,3.4,4.1,6.39,7.48,8.98,3.38,2.59,7.37,3.89,11.96,3.89,5.98,0,10.53-1.66,13.65-4.97l1.69,1.15c-4.59,5.44-11.7,8.15-21.32,8.15Z"/><path class="cls-1" d="M488.01,83.45h-18.59c.69-2.8-.22-5.9-2.73-9.3l-14.43-19.49-1.69,1.27v17.96c0,1.36,.3,2.82,.91,4.4,.61,1.57,1.21,2.82,1.82,3.76l.91,1.4h-20.02c2.43-3.4,3.64-6.58,3.64-9.56V15.03c0-1.36-.3-2.84-.91-4.46-.61-1.61-1.21-2.89-1.82-3.82l-.91-1.4,16.38-5.35V52.36l18.33-14.52c1.65-1.27,2.71-2.65,3.18-4.14,.48-1.49,.61-2.57,.39-3.25-.22-.68-.5-1.23-.84-1.66h14.3c-5.37,3.57-9.66,6.62-12.87,9.17l-11.83,9.3,26.78,36.18Z"/><path class="cls-1" d="M521.94,83.45c2.42-3.4,3.64-6.62,3.64-9.68V11.21c0-1.36-.3-2.84-.91-4.46-.61-1.61-1.21-2.89-1.82-3.82l-.91-1.4h22.36c10.49,0,18.53,1.25,24.12,3.76,5.59,2.51,8.34,6.65,8.25,12.42-.17,9.34-6.8,15.12-19.89,17.33,9.27,1.27,16.12,3.89,20.54,7.84,4.42,3.95,6.63,8.47,6.63,13.57,0,2.63-.22,5.03-.65,7.2-.44,2.17-1.45,4.52-3.05,7.07-1.61,2.55-3.73,4.71-6.37,6.5-2.64,1.78-6.39,3.27-11.24,4.46-4.86,1.19-10.53,1.78-17.03,1.78h-23.66Zm16.38-49.56h7.15c6.67,0,11.48-1.47,14.43-4.4,2.95-2.93,4.42-6.82,4.42-11.66-.09-5.1-1.86-8.68-5.33-10.77-3.47-2.08-8.54-3.12-15.21-3.12h-5.46v29.94Zm4.81,47.14h2.47c4.59,0,8.56-.72,11.9-2.17,3.33-1.44,5.85-3.38,7.54-5.8,1.69-2.42,2.93-4.97,3.71-7.64,.78-2.68,1.17-5.54,1.17-8.6,0-6.88-2.4-12.02-7.21-15.42-4.81-3.4-10.55-5.1-17.22-5.1h-7.15v37.46c0,4.84,1.6,7.26,4.81,7.26Z"/><path class="cls-1" d="M618.53,84.98c-8.32,0-15.21-2.65-20.67-7.96-5.46-5.31-8.41-12-8.84-20.07-.44-7.98,2.08-14.93,7.54-20.83,5.46-5.9,12.83-8.85,22.1-8.85,8.49,0,15.49,2.61,21,7.84,5.5,5.22,8.47,11.96,8.9,20.19,.35,8.49-2.25,15.56-7.8,21.21-5.55,5.65-12.96,8.47-22.23,8.47Zm-3.38-54.78c-5.11,.17-8.8,2.66-11.05,7.45-2.26,4.8-2.86,11.02-1.82,18.66,1.04,7.56,3.4,13.8,7.08,18.73,3.68,4.93,8,7.26,12.93,7.01,5.2-.25,8.91-2.7,11.12-7.33,2.21-4.63,2.84-10.77,1.88-18.41-.96-7.9-3.29-14.29-7.02-19.17-3.73-4.88-8.11-7.2-13.13-6.94Z"/><path class="cls-1" d="M673.26,82.68c4.07-.08,7.28-1.19,9.62-3.31,2.34-2.12,3.34-4.76,2.99-7.9-.35-2.29-1.71-4.35-4.09-6.18-2.38-1.83-5.18-3.4-8.39-4.71-3.21-1.32-6.37-2.72-9.49-4.2-3.12-1.49-5.76-3.4-7.93-5.73-2.17-2.33-3.25-4.99-3.25-7.96,0-4.92,2.04-8.73,6.11-11.4,4.07-2.68,9.1-4.01,15.08-4.01,4.42,0,8.36,.62,11.83,1.85,3.47,1.23,5.85,2.44,7.15,3.63l1.95,1.78-5.2,6.5c-.09-.34-.19-.76-.32-1.27-.13-.51-.59-1.44-1.37-2.8-.78-1.36-1.71-2.55-2.79-3.57-1.08-1.02-2.67-1.93-4.75-2.74-2.08-.81-4.46-1.17-7.15-1.08-3.21,.09-5.77,1.04-7.67,2.87-1.91,1.83-2.69,4.18-2.34,7.07,.26,2.04,1.65,3.89,4.16,5.54,2.51,1.66,5.46,3.12,8.84,4.4,3.38,1.27,6.76,2.66,10.14,4.14,3.38,1.49,6.22,3.4,8.52,5.73,2.29,2.34,3.45,5.03,3.45,8.09,0,3.57-.91,6.6-2.73,9.11-1.82,2.51-4.18,4.31-7.08,5.41-2.91,1.1-5.63,1.89-8.19,2.36-2.56,.47-5.13,.7-7.73,.7-2.78,0-5.42-.3-7.93-.89-2.52-.6-4.55-1.29-6.11-2.1-1.56-.81-2.92-1.63-4.09-2.48-1.17-.85-2.02-1.57-2.54-2.17l-.78-.89,5.33-6.62c.08,.34,.24,.81,.46,1.4,.22,.6,.76,1.66,1.62,3.19,.87,1.53,1.86,2.87,2.99,4.01,1.13,1.15,2.73,2.17,4.81,3.06,2.08,.89,4.38,1.3,6.89,1.21Z"/><path class="cls-1" d="M757.49,51.6h-41.99v.51c0,5.61,.76,10.4,2.28,14.4,1.52,3.99,3.49,6.92,5.92,8.79,2.42,1.87,5.11,3.17,8.06,3.89,2.95,.72,5.85,.81,8.71,.25,2.86-.55,5.48-1.42,7.87-2.61,2.38-1.19,4.27-2.63,5.65-4.33l1.95,1.15c-.17,.34-.46,.76-.84,1.27-.39,.51-1.28,1.4-2.67,2.68-1.39,1.27-2.92,2.42-4.62,3.44-1.69,1.02-3.94,1.93-6.76,2.74-2.82,.81-5.79,1.21-8.91,1.21-8.75,0-15.95-2.55-21.58-7.64-5.63-5.1-8.41-12.36-8.32-21.79,.09-8.24,2.9-15.01,8.45-20.32,5.54-5.31,12.48-7.96,20.8-7.96,7.02,0,13.11,1.98,18.27,5.92,5.16,3.95,7.73,9.28,7.73,15.99v2.42Zm-27.3-22.04c-3.73,0-6.98,1.85-9.75,5.54-2.78,3.69-4.38,8.39-4.81,14.08h28.73c0-5.94-1.3-10.7-3.9-14.27-2.6-3.57-6.03-5.35-10.27-5.35Z"/><path class="cls-1" d="M838.09,83.45c2.51-3.4,3.77-6.58,3.77-9.56v-26.88c0-4.16-1.3-7.39-3.9-9.68-2.6-2.29-5.48-3.44-8.64-3.44s-6.07,1.17-8.71,3.5c-2.64,2.34-3.96,5.5-3.96,9.49v27.01c0,1.36,.3,2.82,.91,4.4,.6,1.57,1.25,2.82,1.95,3.76l.91,1.4h-20.28c2.51-3.4,3.77-6.58,3.77-9.56v-26.12c0-3.4-.87-6.26-2.6-8.6-1.74-2.33-3.83-3.8-6.31-4.4-2.47-.59-4.94-.66-7.41-.19-2.47,.47-4.57,1.83-6.3,4.08-1.73,2.25-2.6,5.03-2.6,8.34v26.88c0,1.36,.3,2.82,.91,4.4,.61,1.57,1.25,2.82,1.95,3.76l.91,1.4h-20.28c2.51-3.4,3.77-6.58,3.77-9.56v-30.19c0-1.36-.3-2.84-.91-4.46-.61-1.61-1.26-2.84-1.95-3.69l-.91-1.4,16.51-5.35v9.94c1.56-3.23,4.05-5.94,7.47-8.15,3.42-2.21,7.09-3.31,10.99-3.31,9.71,0,15.86,4.04,18.46,12.1,1.65-3.23,4.14-6.05,7.47-8.47,3.34-2.42,7.56-3.63,12.68-3.63,5.37,0,9.86,1.7,13.46,5.1,3.59,3.4,5.39,8.58,5.39,15.54v25.99c0,1.36,.3,2.82,.91,4.4,.61,1.57,1.26,2.82,1.95,3.76l.91,1.4h-20.28Z"/><path class="cls-1" d="M877.87,84.98c-4.86,0-8.84-1.13-11.96-3.38-3.12-2.25-4.68-5.63-4.68-10.13,0-3.48,1.21-6.69,3.64-9.62,2.42-2.93,5.37-5.22,8.84-6.88,3.46-1.66,6.93-3.06,10.4-4.2,3.47-1.15,6.41-1.93,8.84-2.36l3.64-.64c0-7.05-.5-11.87-1.5-14.46-1-2.59-3.4-3.84-7.21-3.76-2.17,0-3.92,.64-5.27,1.91-1.34,1.27-2.14,2.55-2.4,3.82l-.52,1.91h-13.13c.09-.25,.24-.62,.46-1.08,.21-.47,.8-1.27,1.75-2.42,.95-1.15,2.12-2.14,3.51-2.99,1.38-.85,3.44-1.63,6.17-2.36,2.73-.72,5.79-1.08,9.17-1.08,8.58,0,14.34,1.42,17.29,4.27,2.95,2.85,4.42,7.58,4.42,14.21v28.16c0,1.36,.26,2.82,.78,4.4,.52,1.57,1.04,2.82,1.56,3.76l.65,1.4h-15.73v-6.24c-.61,.6-1.5,1.32-2.67,2.17-1.17,.85-3.38,2-6.63,3.44-3.25,1.44-6.39,2.17-9.42,2.17Zm18.72-34.65c-.61,.17-1.39,.4-2.34,.7-.95,.3-2.66,1.06-5.13,2.29-2.47,1.23-4.66,2.55-6.56,3.95-1.91,1.4-3.64,3.31-5.2,5.73s-2.34,4.99-2.34,7.71c0,3.4,.87,5.88,2.6,7.45,1.73,1.57,3.79,2.23,6.17,1.97,2.38-.25,4.77-.91,7.15-1.97,2.38-1.06,4.27-2.31,5.66-3.76v-24.08Z"/><path class="cls-1" d="M921.68,43.7c0-1.36-.3-2.84-.91-4.46-.61-1.61-1.26-2.84-1.95-3.69l-.91-1.4,16.51-5.35v9.94c1.56-3.23,4.09-5.94,7.6-8.15,3.51-2.21,7.21-3.31,11.11-3.31,5.37,0,9.95,1.7,13.72,5.1,3.77,3.4,5.66,8.58,5.66,15.54v25.99c0,1.36,.32,2.82,.97,4.4,.65,1.57,1.28,2.82,1.88,3.76l.91,1.4h-20.28c2.51-3.4,3.77-6.58,3.77-9.56v-26.12c0-6.45-2.38-10.87-7.15-13.25-3.99-2.04-7.89-1.83-11.7,.64-4.25,2.89-6.42,7.56-6.5,14.01v24.72c0,1.36,.3,2.82,.91,4.4,.6,1.57,1.25,2.82,1.95,3.76l.91,1.4h-20.28c2.51-3.4,3.77-6.58,3.77-9.56v-30.19Z"/><path class="cls-1" d="M210.01,117.21c0-1.36-.33-2.84-.98-4.46-.65-1.61-1.28-2.89-1.89-3.82l-.91-1.4h42.9l9.88-.76,.91,9.94c-.26-.51-.65-1.15-1.17-1.91-.52-.76-1.71-1.76-3.58-2.99-1.86-1.23-3.88-1.85-6.04-1.85h-26.52v29.68h17.16c1.39,0,2.9-.32,4.55-.96,1.65-.64,2.9-1.25,3.77-1.85l1.43-.89v9.81c-3.38-2.46-6.63-3.69-9.75-3.69h-17.16v37.71c0,1.36,.3,2.85,.91,4.46,.6,1.62,1.25,2.89,1.95,3.82l.91,1.4h-20.15c2.51-3.4,3.77-6.62,3.77-9.68v-62.55Z"/><path class="cls-1" d="M281.77,190.98c-8.32,0-15.21-2.65-20.67-7.96-5.46-5.31-8.41-12-8.84-20.07-.43-7.98,2.08-14.93,7.54-20.83,5.46-5.9,12.83-8.85,22.1-8.85,8.49,0,15.49,2.61,21,7.84,5.5,5.22,8.47,11.96,8.9,20.19,.35,8.49-2.25,15.56-7.8,21.21-5.55,5.65-12.96,8.47-22.23,8.47Zm-3.38-54.78c-5.11,.17-8.8,2.66-11.05,7.45-2.25,4.8-2.86,11.02-1.82,18.66,1.04,7.56,3.4,13.8,7.08,18.73,3.68,4.93,8,7.26,12.94,7.01,5.2-.25,8.9-2.7,11.11-7.33,2.21-4.63,2.84-10.76,1.89-18.41-.96-7.9-3.29-14.29-7.02-19.17-3.73-4.88-8.1-7.2-13.13-6.94Z"/><path class="cls-1" d="M370.3,179.89c0,1.36,.32,2.83,.98,4.4,.65,1.57,1.28,2.82,1.88,3.76l.91,1.4h-16.51v-9.3c-1.47,3.23-3.96,5.84-7.48,7.83-3.51,2-7.26,2.99-11.24,2.99-5.55,0-10.16-1.59-13.85-4.78-3.68-3.18-5.52-8.22-5.52-15.1v-23.57c0-1.36-.3-2.65-.91-3.89-.61-1.23-1.26-2.1-1.95-2.61l-.91-.89,16.51-5.35v37.58c0,5.44,2.25,9.3,6.76,11.59,4.16,2.04,8.19,1.91,12.09-.38,4.33-2.63,6.5-7.22,6.5-13.76v-22.29c0-1.36-.32-2.65-.98-3.89-.65-1.23-1.28-2.1-1.88-2.61l-.91-.89,16.51-5.35v45.1Z"/><path class="cls-1" d="M384.73,149.7c0-1.36-.3-2.84-.91-4.46-.61-1.61-1.26-2.84-1.95-3.69l-.91-1.4,16.51-5.35v9.94c1.56-3.23,4.09-5.94,7.6-8.15,3.51-2.21,7.21-3.31,11.11-3.31,5.37,0,9.95,1.7,13.72,5.1,3.77,3.4,5.65,8.58,5.65,15.54v25.99c0,1.36,.33,2.83,.98,4.4,.65,1.57,1.28,2.82,1.89,3.76l.91,1.4h-20.28c2.51-3.4,3.77-6.58,3.77-9.56v-26.12c0-6.45-2.38-10.87-7.15-13.25-3.99-2.04-7.89-1.83-11.7,.64-4.25,2.89-6.41,7.56-6.5,14.01v24.71c0,1.36,.3,2.83,.91,4.4,.6,1.57,1.25,2.82,1.95,3.76l.91,1.4h-20.28c2.51-3.4,3.77-6.58,3.77-9.56v-30.19Z"/><path class="cls-1" d="M468.84,190.98c-7.63,0-13.87-2.55-18.72-7.64-4.85-5.1-7.28-11.8-7.28-20.13s2.71-15.29,8.12-21.15c5.42-5.86,12.46-8.79,21.12-8.79,3.64,0,6.93,.51,9.88,1.53,2.95,1.02,4.94,2.04,5.98,3.06l1.69,1.53v-18.35c0-1.36-.3-2.84-.91-4.46-.61-1.61-1.21-2.89-1.82-3.82l-.91-1.4,16.38-5.35v73.89c0,1.36,.3,2.83,.91,4.4,.6,1.57,1.21,2.82,1.82,3.76l.91,1.4h-16.38v-8.92c-.17,.25-.41,.62-.71,1.08-.3,.47-1.06,1.32-2.27,2.55-1.21,1.23-2.56,2.29-4.03,3.18-1.47,.89-3.44,1.72-5.91,2.48-2.47,.76-5.09,1.15-7.87,1.15Zm3.51-54.4c-5.03,.09-8.86,2.34-11.5,6.75-2.64,4.42-4.05,10.28-4.23,17.58-.17,6.8,1.34,12.78,4.55,17.96,3.21,5.18,7.41,7.77,12.61,7.77,2.08,0,4.05-.38,5.92-1.15,1.86-.76,3.38-1.7,4.55-2.8,1.17-1.1,2.19-2.23,3.06-3.38,.87-1.15,1.47-2.1,1.82-2.87l.52-1.15v-17.58c0-7.13-1.67-12.46-5-15.99-3.34-3.52-7.43-5.24-12.29-5.16Z"/><path class="cls-1" d="M527.34,190.98c-4.85,0-8.84-1.13-11.96-3.38-3.12-2.25-4.68-5.63-4.68-10.13,0-3.48,1.21-6.69,3.64-9.62,2.43-2.93,5.37-5.22,8.84-6.88,3.47-1.66,6.93-3.06,10.4-4.21,3.46-1.15,6.41-1.93,8.84-2.36l3.64-.64c0-7.05-.5-11.87-1.5-14.46-1-2.59-3.4-3.84-7.22-3.76-2.17,0-3.92,.64-5.26,1.91-1.35,1.27-2.15,2.55-2.41,3.82l-.52,1.91h-13.13c.09-.25,.24-.62,.46-1.08,.22-.47,.8-1.27,1.75-2.42,.95-1.15,2.12-2.14,3.51-2.99,1.39-.85,3.45-1.63,6.18-2.36,2.73-.72,5.79-1.08,9.16-1.08,8.58,0,14.34,1.42,17.29,4.27,2.95,2.85,4.42,7.58,4.42,14.21v28.15c0,1.36,.26,2.83,.78,4.4,.52,1.57,1.04,2.82,1.56,3.76l.65,1.4h-15.73v-6.24c-.61,.6-1.5,1.32-2.67,2.17-1.17,.85-3.38,2-6.63,3.44-3.25,1.44-6.39,2.17-9.43,2.17Zm18.72-34.65c-.61,.17-1.39,.4-2.34,.7-.96,.3-2.67,1.06-5.13,2.29-2.47,1.23-4.66,2.55-6.57,3.95-1.91,1.4-3.64,3.31-5.2,5.73-1.56,2.42-2.34,4.99-2.34,7.71,0,3.4,.87,5.88,2.6,7.45,1.73,1.57,3.79,2.23,6.18,1.97,2.38-.25,4.76-.91,7.15-1.97,2.38-1.06,4.27-2.31,5.66-3.76v-24.08Z"/><path class="cls-1" d="M568.93,137.6h-4.16v-2.55c2.17,0,4.98-1.57,8.45-4.71,3.46-3.14,5.42-6.2,5.85-9.17h2.6v13.89h9.23v2.55h-9.23v42.55c0,5.01,1.3,7.6,3.9,7.77,.52,0,1.08-.08,1.69-.26,.61-.17,1.13-.34,1.56-.51l.52-.38,.65,1.78c-.61,.6-1.99,1.08-4.16,1.46s-4.53,.53-7.08,.45c-2.56-.08-4.83-1.04-6.83-2.87-2-1.83-2.99-4.44-2.99-7.84v-42.17Z"/><path class="cls-1" d="M599.87,147.53c0-1.36-.32-2.65-.97-3.89-.65-1.23-1.28-2.1-1.88-2.61l-.91-.89,16.51-5.35v45.1c0,1.36,.33,2.83,.97,4.4,.65,1.57,1.28,2.82,1.89,3.76l.91,1.4h-20.28c2.51-3.4,3.77-6.58,3.77-9.56v-32.36Zm11.12-25.03c-1.52,1.49-3.31,2.23-5.39,2.23s-3.86-.74-5.33-2.23c-1.47-1.48-2.21-3.25-2.21-5.29s.74-3.8,2.21-5.29c1.47-1.48,3.25-2.23,5.33-2.23s3.88,.74,5.39,2.23c1.52,1.49,2.28,3.25,2.28,5.29s-.76,3.8-2.28,5.29Z"/><path class="cls-1" d="M650.31,190.98c-8.32,0-15.21-2.65-20.67-7.96-5.46-5.31-8.41-12-8.84-20.07-.43-7.98,2.08-14.93,7.54-20.83,5.46-5.9,12.83-8.85,22.1-8.85,8.49,0,15.49,2.61,20.99,7.84,5.5,5.22,8.47,11.96,8.91,20.19,.34,8.49-2.25,15.56-7.8,21.21-5.55,5.65-12.96,8.47-22.23,8.47Zm-3.38-54.78c-5.11,.17-8.8,2.66-11.05,7.45-2.25,4.8-2.86,11.02-1.82,18.66,1.04,7.56,3.4,13.8,7.09,18.73,3.68,4.93,7.99,7.26,12.93,7.01,5.2-.25,8.91-2.7,11.11-7.33,2.21-4.63,2.84-10.76,1.89-18.41-.96-7.9-3.29-14.29-7.02-19.17-3.73-4.88-8.1-7.2-13.13-6.94Z"/><path class="cls-1" d="M688.53,149.7c0-1.36-.3-2.84-.91-4.46-.61-1.61-1.26-2.84-1.95-3.69l-.91-1.4,16.51-5.35v9.94c1.56-3.23,4.09-5.94,7.61-8.15,3.51-2.21,7.21-3.31,11.11-3.31,5.37,0,9.95,1.7,13.72,5.1,3.77,3.4,5.65,8.58,5.65,15.54v25.99c0,1.36,.33,2.83,.97,4.4,.65,1.57,1.28,2.82,1.89,3.76l.91,1.4h-20.28c2.51-3.4,3.77-6.58,3.77-9.56v-26.12c0-6.45-2.38-10.87-7.15-13.25-3.99-2.04-7.89-1.83-11.7,.64-4.25,2.89-6.41,7.56-6.5,14.01v24.71c0,1.36,.3,2.83,.91,4.4,.61,1.57,1.25,2.82,1.95,3.76l.91,1.4h-20.28c2.51-3.4,3.77-6.58,3.77-9.56v-30.19Z"/></g><g><path class="cls-1" d="M262.21,258.72c.79-1.88,4.4-2.09,6.06-2.09,3.46,.07,6.85,.07,10.32-.22,5.56-.43,10.89-1.59,16.38-2.6,1.44-.29,3.17,1.8-.94,2.81h-.07c-3.61,.79-7.21,1.44-10.82,2.09-5.48,.87-9.23,1.23-14.72,1.08-1.44,0-2.52,0-2.31,.72,2.45,11.54-2.24,29.29-8.01,29.8-4.91,.36-5.77-10.97-5.63-14.5,.43-18.61,10.6-35.57,20.27-50.65,.79-1.3,4.11-7.22,6.13-5.48,1.44,1.3-.58,4.04-1.37,5.12l-.22,.29c-7.65,11.11-15.22,22.87-18.83,36.07-.87,3.1-4.04,24.24-.87,25.11,2.67,.79,7.07-11.47,4.98-25.25-.14-.79-.65-1.59-.36-2.31Z"/><path class="cls-1" d="M317.98,261.68c-2.38-.07-4.91-.29-7.29-.79-.94-.22-1.01-.36-1.88,.22-3.39,2.24-7,3.97-11.18,2.74l-.14-.07-.22-.07-.14-.07-.14-.07c-4.83-1.95-3.68-7.14-1.44-10.75,.65-1.01,.87-.79,.87-2.09-.07-2.96,.65-4.69,3.03-6.49,3.54-2.53,8.01-1.8,11.69,.07,.36,.22,.65,.36,1.01,.58,5.34,3.61,3.82,9.09,.07,13.2-.22,.29-.58,.43-.14,.51,2.16,.43,5.27,.58,7.58,.58,8.59-.22,18.18-2.89,24.75-5.34,2.02-.79,3.61,1.51,1.37,2.38-8.37,3.32-18.54,5.77-27.78,5.48Zm-12.84-1.51c.58-.29,.94-.36,.22-.65-2.81-1.15-4.62-1.88-6.78-4.11-.43-.43-.43-.79-.79-.29-1.01,1.51-1.88,3.54-.65,5.12,2.38,2.24,5.48,1.15,8.01-.07Zm1.8-2.89c1.51,.58,1.37,.87,2.52-.29,2.16-2.16,4.91-5.56,2.45-8.59-1.66-1.73-3.61-2.74-6.06-2.96-2.52-.14-5.84,.72-7,3.25-.29,.58-.29,.79,.36,.36,1.8-1.23,3.75-2.6,5.92-1.44,2.02,1.3-2.38,3.03-3.17,3.39-.36,.22-.65,.36-1.01,.65-.65,.43-1.08,.65-.43,1.44,1.95,2.09,3.75,3.17,6.42,4.18Z"/><path class="cls-1" d="M360.26,249.2c1.73,2.45,3.61,6.42,11.76,7.58,7.14,1.01,14.79-.51,19.55-2.89,1.73-.87,2.89,1.08,.72,2.52-4.33,2.81-25.9,7.22-33.84-3.46-2.45-3.32-13.56,13.49-14.36,15.22-.58,1.08-1.51,3.9-3.54,3.39-1.08-.29-1.23-1.44-1.01-2.38,1.66-5.63,3.97-13.71,6.35-19.26,.36-.79,.87-1.08,1.44-1.08,.79,.07,1.51,.87,1.59,1.66-.14,1.15-3.1,9.52-1.15,7.36,2.24-2.53,9.38-13.35,12.48-8.66Z"/><path class="cls-1" d="M617.41,249.2c1.73,2.45,3.61,6.42,11.76,7.58,7.14,1.01,14.79-.51,19.55-2.89,1.73-.87,2.89,1.08,.72,2.52-4.33,2.81-25.9,7.22-33.84-3.46-2.45-3.32-13.56,13.49-14.36,15.22-.58,1.08-1.51,3.9-3.54,3.39-1.08-.29-1.23-1.44-1.01-2.38,1.66-5.63,3.97-13.71,6.35-19.26,.36-.79,.87-1.08,1.44-1.08,.79,.07,1.51,.87,1.59,1.66-.14,1.15-3.1,9.52-1.15,7.36,2.24-2.53,9.38-13.35,12.48-8.66Z"/><path class="cls-1" d="M628.16,220.77c-.07-.58,.36-1.3,.94-1.37,3.97-.43,7.94-.79,11.83-1.15,5.7-.43,11.98-1.01,17.68-1.15q4.47-.14,5.99-4.11c.29-.79,1.01-1.23,1.88-1.01,.72,.29,1.23,1.01,1.01,1.8-.58,2.09-1.95,2.89,1.3,2.81,4.26-.14,8.51-.29,12.77-.43,4.91-.07,10.46-.29,15.37-.07,1.23,.07,3.1-.14,3.32,1.51,0,.79-.72,1.23-1.37,1.3-2.16,.14-4.26,.14-6.42,.14-6.49,.07-12.99,.22-19.55,.43-5.41,.14-7.57-.94-9.52,4.76-3.32,9.52-7.29,18.76-10.68,28.21-.87,2.24-2.89,7.72-3.75,12.34-3.39,18.18,27.05,2.09,34.63-10.97,.79-1.37,2.67-.36,2.09,1.01-8.01,15.65-49.85,37.88-38.53,3.54,1.37-3.97,2.74-7.94,4.18-11.83,2.74-7.36,5.7-15.15,8.87-22.22,1.23-2.81,1.95-4.54-1.95-4.33-9.6,.65-19.19,1.23-28.79,1.95-.65,.07-1.23-.58-1.3-1.15Z"/><path class="cls-1" d="M696.26,263.7c-1.15,.14-2.02,1.08-2.6,2.16-1.08,1.95-1.8,3.03-3.25,4.83-2.24,2.6-4.98,5.05-8.66,4.98-.5,0-.94-.29-1.23-.58-.36-.36-.43-.87-.43-1.3,0-1.51,.58-2.67,1.51-3.82l.14-.22c2.02-2.53,4.76-4.69,7.58-6.2,1.3-.72,1.95-.79,1.95-2.31,.07-4.83-6.57-3.68-8.23-8.51-1.01-4.11,4.76-8.01,8.44-9.38,1.01-.43,1.88,.07,2.31,.65,.51,.79,.29,2.09-1.15,2.81-1.23,.65-5.2,2.67-5.2,4.47,.07,1.51,.94,2.09,2.16,2.74,1.59,.79,3.03,1.59,4.04,2.89,.94,1.15,1.3,2.09,1.37,3.9,0,.29,.22,.43,.51,.43,10.24-1.23,18.69-3.53,26.48-7.43,2.53-1.3,3.97,.58,1.23,2.16-7.94,4.55-18.11,6.57-26.98,7.72Z"/><g><path class="cls-1" d="M592.07,187.24s0,.01-.01,.02c.01,0,.02,0,.03-.01,0,0,.01-.02,.02-.03,0,0-.01,0-.02,0-.01,0-.01,0-.02,.01Z"/><path class="cls-1" d="M597.71,245.37c-4.39-1.3-9-1.82-13.55-2.11-1.07-.07-2.14-.11-3.21-.15,.6-4.07,1.36-8.13,2.26-12.16,1.76-7.82,4.04-15.5,6.44-23.15,1.64-5.22,3.57-10.5,4.47-15.92,.26-1.56,.56-3.43,.1-4.99-.43-1.45-1.96-1.38-3.22-1.04-3.18,.85-5.25,4.31-7.01,6.83-7.63,10.91-14.23,22.55-21.47,33.72-3.99,6.16-8.1,12.25-12.46,18.15-2.81,.3-5.62,.62-8.42,1-1.81,.24-3.61,.49-5.41,.78-.74,.12-2.15,.49-2.3,1.39-.15,.89,1.19,.98,1.76,.89,4.18-.67,8.38-1.19,12.59-1.65-3.88,5.12-7.98,10.13-12.65,14.53-.99,.94-2.02,1.83-3.09,2.68-.63,.51-.48,1.01,.31,1.14,.88,.15,2.17-.21,2.87-.77,4.95-3.96,9.19-8.77,13.15-13.69,1.14-1.42,2.25-2.85,3.35-4.3,8.12-.8,16.31-1.34,24.48-1.2-1.88,13.54-2.04,27.29,.22,40.86,.47,2.81,1.04,5.59,1.69,8.36,.27,1.12,4.34,.09,4.06-1.09-3.75-15.82-4.14-32.02-2.03-48.01,4.91,.22,9.88,.71,14.61,2.11,.88,.26,2.22-.13,2.87-.77,.64-.63,.44-1.21-.39-1.46Zm-5.63-58.13s-.06,.05-.07,.05c0,0,.02-.01,.03-.02,0,0,0,0,0-.01,0,0-.01,0-.02,0,0,0,.02-.02,.04-.03,.1-.11,.18-.25,.06-.04,0,0-.01,.01-.02,.02,.12-.06,.25-.08-.02,.03Zm-2.16,.24s.03,.03,.07,.06c-.05,0-.11,0-.07-.06Zm-21.46,55.69c-4.83,.19-9.66,.54-14.48,.99,2.82-3.83,5.54-7.74,8.19-11.69,7.78-11.63,14.89-23.69,22.53-35.41,1.75-2.69,3.5-5.56,5.63-8.02,.06,.68,.04,1.37-.03,2.04-.5,4.91-2.27,9.74-3.75,14.42-2.25,7.18-4.5,14.36-6.31,21.66-1.3,5.24-2.38,10.53-3.2,15.86-2.86-.02-5.72,.03-8.58,.15Z"/></g><path class="cls-1" d="M400.73,222.79c-.06-.5,.31-1.13,.82-1.19,3.46-.38,6.91-.69,10.31-1.01,4.96-.38,10.43-.88,15.4-1.01q3.9-.13,5.22-3.58c.25-.69,.88-1.07,1.63-.88,.63,.25,1.07,.88,.88,1.57-.5,1.82-1.7,2.51,1.13,2.45,3.71-.13,7.42-.25,11.12-.38,4.27-.06,9.11-.25,13.39-.06,1.07,.06,2.7-.13,2.89,1.32,0,.69-.63,1.07-1.19,1.13-1.89,.13-3.71,.13-5.59,.13-5.66,.06-11.31,.19-17.03,.38-4.71,.13-6.6-.82-8.3,4.15-2.89,8.3-6.35,16.34-9.3,24.57-.75,1.95-2.51,6.72-3.27,10.75-2.95,15.84,23.57,1.82,30.17-9.55,.69-1.19,2.33-.31,1.82,.88-6.98,13.64-43.43,32.99-33.56,3.08,1.19-3.46,2.39-6.91,3.65-10.31,2.39-6.41,4.96-13.2,7.73-19.36,1.07-2.45,1.7-3.96-1.7-3.77-8.36,.57-16.72,1.07-25.08,1.7-.57,.06-1.07-.5-1.13-1.01Z"/><path class="cls-1" d="M457.66,248.62c-1.01-.44-3.39,2.83-3.83,3.52-1.45,2.01-2.64,4.09-4.02,6.03-.57,.82-1.45,2.58-2.64,2.39-1.63-.19-.88-2.14-.5-3.08,4.78-11.69,9.18-24.13,12.51-36.26,.31-.94,.63-2.89,2.01-2.45,1.19,.38,.94,1.45,.69,2.33-.75,2.7-1.57,5.4-2.39,8.04-1.95,6.1-4.02,12.44-6.35,18.35-.88,2.26-.63,2.07,.82,.5,3.58-3.96,6.35-.5,8.42,2.76,6.16,9.49,15.96,4.21,23.63,.82,2.83-1.26,3.71,.63,1.13,1.95-9.3,4.78-20.3,8.67-27.21-2.26-.44-.69-1.57-2.33-2.26-2.64Z"/><path class="cls-1" d="M493.19,246.17c1.89-.25,3.2,.25,3.83,2.01,.63,1.7,.44,3.65-.69,5.09-1.45,1.82-4.27,2.64-6.47,2.14-.88-.19-1.7-.88-1.51,.63,1.13,9.8,19.64,.19,23.78-2.14,.44-.25,.88-.44,1.26-.57,3.46-1.45,2.01,1.51,.44,2.33-36.41,20.61-33.27-8.04-20.64-9.49Zm1.45,3.46c-1.13-1.57-3.58,.82-4.27,1.76-.69,.94-.82,1.51,.5,1.57h.19c.69,0,1.45,0,2.14-.31,1.07-.44,2.26-1.89,1.45-3.02Z"/></g></g></g></svg>