<svg width="29" height="29" viewBox="0 0 29 29" fill="none" xmlns="http://www.w3.org/2000/svg">
<path d="M24.1666 24.1663H4.83329C4.19235 24.1663 3.57766 23.9117 3.12445 23.4585C2.67124 23.0053 2.41663 22.3906 2.41663 21.7497V7.14455C2.44373 6.52201 2.71026 5.93399 3.16057 5.50327C3.61088 5.07255 4.21016 4.83242 4.83329 4.83301H24.1666C24.8076 4.83301 25.4223 5.08762 25.8755 5.54083C26.3287 5.99405 26.5833 6.60874 26.5833 7.24968V21.7497C26.5833 22.3906 26.3287 23.0053 25.8755 23.4585C25.4223 23.9117 24.8076 24.1663 24.1666 24.1663ZM4.83329 9.50684V21.7497H24.1666V9.50684L14.5 15.9497L4.83329 9.50684ZM5.79996 7.24968L14.5 13.0497L23.2 7.24968H5.79996Z" fill="white"/>
</svg>
